<svg xmlns="http://www.w3.org/2000/svg" width="430" height="210" viewBox="0 0 430 210" role="img" aria-label="Darshita Patel core skills">
<defs><style>.s{font-family:Segoe UI,Arial,sans-serif}.m{font-family:Consolas,monospace}</style></defs>
<rect x="2" y="2" width="426" height="206" rx="18" fill="#170e28" stroke="#ec4899" stroke-width="2"/>
<text x="24" y="34" class="m" font-size="15" font-weight="700" fill="#f472b6">Core Skills</text>
<g><animate attributeName="opacity" values="0;1" dur=".5s" begin="0.25s" fill="freeze"/>
<text x="24" y="62" class="s" font-size="12" font-weight="600" fill="#d8d1e4">SQL &amp; Data Modeling</text><text x="392" y="62" text-anchor="end" class="m" font-size="11" fill="#67e8f9">94%</text>
<rect x="154" y="52" width="240" height="10" rx="5" fill="#2b1748"/><rect x="154" y="52" width="225.6" height="10" rx="5" fill="#67e8f9"><animate attributeName="width" values="0;225.6" dur="1s" begin="0.35s" fill="freeze"/></rect></g><g><animate attributeName="opacity" values="0;1" dur=".5s" begin="0.45s" fill="freeze"/>
<text x="24" y="100" class="s" font-size="12" font-weight="600" fill="#d8d1e4">Python &amp; ETL</text><text x="392" y="100" text-anchor="end" class="m" font-size="11" fill="#a78bfa">91%</text>
<rect x="154" y="90" width="240" height="10" rx="5" fill="#2b1748"/><rect x="154" y="90" width="218.4" height="10" rx="5" fill="#a78bfa"><animate attributeName="width" values="0;218.4" dur="1s" begin="0.55s" fill="freeze"/></rect></g><g><animate attributeName="opacity" values="0;1" dur=".5s" begin="0.65s" fill="freeze"/>
<text x="24" y="138" class="s" font-size="12" font-weight="600" fill="#d8d1e4">Power BI &amp; DAX</text><text x="392" y="138" text-anchor="end" class="m" font-size="11" fill="#fbbf24">90%</text>
<rect x="154" y="128" width="240" height="10" rx="5" fill="#2b1748"/><rect x="154" y="128" width="216.0" height="10" rx="5" fill="#fbbf24"><animate attributeName="width" values="0;216.0" dur="1s" begin="0.75s" fill="freeze"/></rect></g><g><animate attributeName="opacity" values="0;1" dur=".5s" begin="0.8500000000000001s" fill="freeze"/>
<text x="24" y="176" class="s" font-size="12" font-weight="600" fill="#d8d1e4">React &amp; FastAPI</text><text x="392" y="176" text-anchor="end" class="m" font-size="11" fill="#f472b6">82%</text>
<rect x="154" y="166" width="240" height="10" rx="5" fill="#2b1748"/><rect x="154" y="166" width="196.8" height="10" rx="5" fill="#f472b6"><animate attributeName="width" values="0;196.8" dur="1s" begin="0.9500000000000001s" fill="freeze"/></rect></g></svg>